<svg xmlns="http://www.w3.org/2000/svg" viewBox="0 0 300 400">
  <!-- Card Background with shadow -->
  <defs>
    <linearGradient id="cardGradient" x1="0%" y1="0%" x2="100%" y2="100%">
      <stop offset="0%" style="stop-color:#2563eb;stop-opacity:1" />
      <stop offset="100%" style="stop-color:#1e40af;stop-opacity:1" />
    </linearGradient>
    <!-- Drop shadow filter -->
    <filter id="shadow" x="-20%" y="-20%" width="140%" height="140%">
      <feGaussianBlur in="SourceAlpha" stdDeviation="5"/>
      <feOffset dx="3" dy="3" result="offsetblur"/>
      <feComponentTransfer>
        <feFuncA type="linear" slope="0.3"/>
      </feComponentTransfer>
      <feMerge> 
        <feMergeNode/>
        <feMergeNode in="SourceGraphic"/> 
      </feMerge>
    </filter>
  </defs>
  
  <!-- Main Card -->
  <rect x="30" y="20" width="240" height="360" rx="20" 
        fill="url(#cardGradient)" filter="shadow"/>
  
  <!-- Card Decoration - Top Circle -->
  <circle cx="150" cy="100" r="50" fill="#ffffff" opacity="0.1"/>
  
  <!-- Chip Design -->
  <rect x="80" y="180" width="140" height="80" rx="10" 
        fill="#ffd700" opacity="0.8"/>
  <rect x="90" y="190" width="120" height="60" rx="5" 
        fill="#c4b000" opacity="0.6"/>
  <line x1="90" y1="210" x2="210" y2="210" 
        stroke="#ffd700" stroke-width="2"/>
  
  <!-- Bottom Pattern -->
  <path d="M50 300 Q150 280 250 300 Q150 320 50 300" 
        fill="none" stroke="#ffffff" stroke-width="2" opacity="0.3"/>
  <path d="M50 320 Q150 300 250 320 Q150 340 50 320" 
        fill="none" stroke="#ffffff" stroke-width="2" opacity="0.3"/>
  
  <!-- Card Number Placeholder -->
  <rect x="70" y="290" width="160" height="20" rx="5" 
        fill="#ffffff" opacity="0.2"/>
  
  <!-- Corner Decorations -->
  <circle cx="60" cy="50" r="10" fill="#ffffff" opacity="0.2"/>
  <circle cx="240" cy="50" r="10" fill="#ffffff" opacity="0.2"/>
  <circle cx="60" cy="350" r="10" fill="#ffffff" opacity="0.2"/>
  <circle cx="240" cy="350" r="10" fill="#ffffff" opacity="0.2"/>
</svg>