<svg xmlns="http://www.w3.org/2000/svg" viewBox="0 0 300 400">
    <!-- Main Cabinet Body -->
    <rect x="50" y="50" width="200" height="300" fill="#333333" stroke="#000000" stroke-width="2"/>
    
    <!-- Screen Area -->
    <rect x="70" y="70" width="160" height="120" fill="#000000" stroke="#444444" stroke-width="2"/>
    <rect x="75" y="75" width="150" height="110" fill="#1a1a1a"/>
    
    <!-- Control Panel -->
    <path d="M50 280 L250 280 L270 330 L30 330 Z" fill="#444444" stroke="#000000" stroke-width="2"/>
    
    <!-- Joystick -->
    <circle cx="100" cy="305" r="12" fill="#000000" stroke="#777777" stroke-width="2"/>
    <circle cx="100" cy="305" r="8" fill="#ff0000"/>
    
    <!-- Buttons -->
    <circle cx="180" cy="295" r="8" fill="#ff0000" stroke="#000000" stroke-width="2"/>
    <circle cx="210" cy="295" r="8" fill="#ff0000" stroke="#000000" stroke-width="2"/>
    <circle cx="180" cy="315" r="8" fill="#ff0000" stroke="#000000" stroke-width="2"/>
    <circle cx="210" cy="315" r="8" fill="#ff0000" stroke="#000000" stroke-width="2"/>
    
    <!-- Marquee -->
    <rect x="45" y="20" width="210" height="30" fill="#222222" stroke="#000000" stroke-width="2"/>
    
    <!-- Base -->
    <rect x="30" y="330" width="240" height="20" fill="#333333" stroke="#000000" stroke-width="2"/>
    
    <!-- Speakers -->
    <rect x="70" y="200" width="40" height="40" fill="#222222" stroke="#000000" stroke-width="2"/>
    <rect x="190" y="200" width="40" height="40" fill="#222222" stroke="#000000" stroke-width="2"/>
    
    <!-- Speaker Grills -->
    <g stroke="#444444" stroke-width="1">
        <line x1="75" y1="205" x2="105" y2="205"/>
        <line x1="75" y1="215" x2="105" y2="215"/>
        <line x1="75" y1="225" x2="105" y2="225"/>
        <line x1="75" y1="235" x2="105" y2="235"/>
        
        <line x1="195" y1="205" x2="225" y2="205"/>
        <line x1="195" y1="215" x2="225" y2="215"/>
        <line x1="195" y1="225" x2="225" y2="225"/>
        <line x1="195" y1="235" x2="225" y2="235"/>
    </g>
</svg>