<svg xmlns="http://www.w3.org/2000/svg" viewBox="0 0 200 200">
  <!-- Background Circle -->
  <circle cx="100" cy="100" r="90" fill="#f43f5e" opacity="0.1"/>
  
  <!-- Game Controller Base -->
  <path d="M40 80 
           C40 60, 60 50, 100 50
           C140 50, 160 60, 160 80
           L160 120
           C160 140, 140 150, 100 150
           C60 150, 40 140, 40 120
           Z" 
        fill="#f43f5e" 
        stroke="#dc2626" 
        stroke-width="2"/>
  
  <!-- D-Pad -->
  <!-- Vertical -->
  <rect x="60" y="85" width="15" height="45" rx="2" fill="#ffffff"/>
  <!-- Horizontal -->
  <rect x="45" y="100" width="45" height="15" rx="2" fill="#ffffff"/>
  
  <!-- Action Buttons -->
  <!-- X -->
  <circle cx="130" cy="95" r="8" fill="#ffffff"/>
  <!-- Y -->
  <circle cx="145" cy="110" r="8" fill="#ffffff"/>
  <!-- A -->
  <circle cx="115" cy="110" r="8" fill="#ffffff"/>
  <!-- B -->
  <circle cx="130" cy="125" r="8" fill="#ffffff"/>
  
  <!-- Start/Select Buttons -->
  <rect x="85" y="105" width="20" height="8" rx="4" fill="#ffffff"/>
  
  <!-- Decorative Lines -->
  <path d="M45 90 C45 70, 60 60, 100 60" fill="none" stroke="#ffffff" stroke-width="1" opacity="0.3"/>
  <path d="M155 90 C155 70, 140 60, 100 60" fill="none" stroke="#ffffff" stroke-width="1" opacity="0.3"/>
</svg>